<svg width="324" height="324" viewBox="0 0 324 324" fill="none" xmlns="http://www.w3.org/2000/svg">
<path d="M152.604 312.498C236.08 312.498 303.75 244.828 303.75 161.352C303.75 77.8764 236.08 10.2061 152.604 10.2061C69.1284 10.2061 1.45801 77.8764 1.45801 161.352C1.45801 244.828 69.1284 312.498 152.604 312.498Z" fill="#EFF2FF"/>
<path d="M185.814 249.642C172.044 219.186 164.916 185.976 164.754 152.442C164.754 151.632 164.43 151.146 164.106 150.66C164.106 150.498 164.106 150.498 164.106 150.336C163.62 148.554 163.134 146.934 162.648 145.152C162.486 144.504 162 144.018 161.514 143.694H161.352C161.352 143.532 161.514 143.37 161.514 143.208C161.514 142.074 160.38 140.616 159.084 140.778C150.984 141.75 143.046 142.722 134.946 143.694C133.974 142.074 132.678 140.616 130.734 140.13C129.276 139.806 127.818 140.13 126.36 140.778C125.226 141.264 123.768 142.074 122.472 142.236C121.176 142.398 120.042 143.208 120.042 144.666C120.042 144.828 120.042 144.99 120.204 145.152C113.886 145.8 107.73 146.448 101.412 146.934C100.44 144.18 98.9817 141.102 95.7417 141.264C94.1217 141.264 92.5017 142.236 91.0437 143.046C89.5857 143.856 88.2897 144.828 86.9937 145.8C86.1837 146.448 86.1837 147.42 86.5077 148.23C80.9997 148.716 75.6537 149.04 70.1457 149.526C69.0117 147.096 67.2297 144.828 64.3137 144.018C60.2637 143.046 57.0237 145.8 54.4317 148.554C53.7837 149.202 53.6217 149.85 53.7837 150.498C46.0077 150.984 38.0697 151.47 30.2937 151.794C28.8357 151.794 28.0257 153.09 27.8637 154.224C27.5397 154.548 27.3777 155.034 27.3777 155.682C27.8637 181.764 30.1317 207.522 33.6957 233.28C33.5337 233.604 33.3717 233.928 33.3717 234.252C32.3997 243.972 28.1877 253.368 21.7077 260.658C20.7357 261.792 20.7357 263.736 22.1937 264.546C27.8637 267.3 33.6957 269.892 39.6897 272.322C40.0137 272.484 40.1757 272.484 40.4997 272.484C40.8237 274.104 40.9857 275.724 41.3097 277.344C41.6337 279.126 43.0917 279.45 44.3877 278.802C44.5497 279.774 45.3597 280.746 46.6557 280.746C71.2797 280.584 95.9037 278.964 120.366 275.562C132.516 273.942 144.504 271.998 156.492 269.568C162.486 268.434 168.48 267.138 174.474 265.68C178.848 264.546 183.06 262.764 185.814 259.038C187.758 256.608 184.194 253.044 182.25 255.474C179.01 259.686 173.988 260.658 169.128 261.792C163.458 263.088 157.788 264.222 151.956 265.356C140.13 267.624 128.304 269.568 116.478 271.188C93.3117 274.104 69.9837 275.724 46.6557 275.724C46.3317 275.724 46.1697 275.724 46.0077 275.886C40.0137 239.922 36.6117 203.634 35.8017 167.346C35.8017 165.564 34.1817 164.754 32.8857 165.078C32.7237 162.162 32.5617 159.408 32.5617 156.492C41.7957 156.006 50.8677 155.52 60.1017 155.034C60.2637 155.196 60.4257 155.52 60.5877 155.682V155.844C60.4257 155.844 60.4257 155.844 60.2637 155.844C52.0017 156.816 43.7397 157.95 35.4777 159.084C34.1817 159.246 33.3717 161.028 33.6957 162.162C34.0197 163.62 35.4777 164.106 36.7737 163.944C44.5497 162.81 52.3257 161.838 60.2637 160.866C60.7497 160.866 61.2357 160.704 61.7217 160.704C61.8837 160.704 61.8837 160.704 61.8837 160.704C62.8557 164.592 63.6657 168.318 63.5037 172.368C63.5037 173.664 64.6377 174.798 65.9337 174.798C66.9057 174.798 67.7157 174.15 68.2017 173.34C69.0117 173.502 69.9837 173.178 70.6317 172.206C72.5757 168.966 73.2237 165.24 73.0617 161.514C73.0617 160.866 72.8997 160.218 72.8997 159.408C79.0557 158.76 85.0497 158.112 91.2057 157.464C93.3117 161.028 94.6077 165.078 94.9317 169.128C95.0937 170.424 96.0657 171.558 97.3617 171.558C98.6577 171.558 99.9537 170.424 99.7917 169.128C99.7917 168.804 99.7917 168.642 99.6297 168.318C100.926 168.966 102.546 168.642 103.032 166.86C103.842 163.296 104.004 159.732 103.68 156.006C103.842 156.006 104.004 156.168 104.328 156.168C111.618 155.52 118.908 154.872 126.198 154.224C128.628 158.274 130.248 162.972 130.41 167.832C130.41 168.804 130.896 169.452 131.706 169.938C102.222 173.016 72.8997 175.932 43.4157 179.01C41.6337 179.172 40.8237 180.954 41.1477 182.25C40.8237 182.25 40.4997 182.25 40.3377 182.25C39.6897 182.412 39.2037 182.736 38.8797 183.384C38.5557 184.032 38.3937 184.68 38.5557 185.328C39.0417 186.948 39.5277 188.406 39.8517 190.026C40.0137 190.674 40.4997 191.16 40.9857 191.484C41.4717 191.808 42.2817 191.97 42.9297 191.808C43.4157 191.646 44.0637 191.322 44.3877 190.836C44.7117 191.16 45.3597 191.484 46.0077 191.322C57.6717 190.35 69.1737 189.054 80.8377 187.92C81.3237 188.082 81.9717 188.244 82.6197 188.082C82.9437 187.92 83.2677 187.758 83.4297 187.596C108.216 185.004 132.84 182.088 157.464 178.848C159.732 178.524 160.38 175.608 159.246 174.474C159.246 174.312 159.246 173.988 159.084 173.826C158.922 173.016 158.598 172.206 158.274 171.396C158.112 171.072 157.95 170.91 157.626 170.748C158.112 169.29 157.464 167.346 155.52 167.508C148.554 168.156 141.588 168.966 134.784 169.614C135.108 169.452 135.27 169.128 135.432 168.804C136.566 169.128 138.024 168.804 138.51 167.184C139.644 162.648 139.806 157.95 138.996 153.252C145.962 152.766 152.928 152.28 160.056 151.794C160.218 152.118 160.218 152.28 160.542 152.442C160.704 186.786 168.156 220.482 182.25 251.748C182.898 254.988 187.11 252.396 185.814 249.642ZM153.576 173.988C153.414 173.826 153.576 173.826 153.576 173.988C153.576 173.988 153.576 174.312 153.738 174.474C150.822 174.798 147.906 175.284 144.99 175.608C144.828 174.96 144.666 174.312 144.504 173.664C147.42 173.34 150.336 173.016 153.414 172.692C153.252 173.178 153.414 173.502 153.576 173.988ZM139.644 174.798C139.806 175.284 139.968 175.608 139.968 176.094C134.946 176.742 129.762 177.39 124.74 178.038C124.416 177.228 124.254 176.418 123.93 175.608C129.114 175.122 134.298 174.474 139.482 173.988C139.482 174.312 139.482 174.636 139.644 174.798ZM63.5037 184.68C63.3417 184.194 63.1797 183.708 63.1797 183.222C63.1797 182.898 63.0177 182.574 62.6937 182.412C62.5317 182.25 62.3697 182.088 62.2077 182.088C67.5537 181.602 72.8997 180.954 78.2457 180.468C78.0837 180.954 78.0837 181.278 78.2457 181.764C78.4077 182.25 78.4077 182.736 78.5697 183.384C73.5477 183.708 68.5257 184.194 63.5037 184.68ZM82.9437 180.306C82.9437 180.144 82.7817 179.982 82.7817 179.82C87.9657 179.334 93.1497 178.686 98.4957 178.2V178.362C98.4957 178.524 98.4957 178.848 98.3337 179.01C98.3337 179.496 98.4957 179.82 98.6577 180.306C98.8197 180.468 98.8197 180.792 98.9817 180.954C93.7977 181.602 88.6137 182.088 83.4297 182.574C83.2677 181.926 83.1057 181.116 82.9437 180.306ZM104.166 180.468C103.68 179.658 103.356 178.686 102.87 177.876C108.216 177.39 113.562 176.742 118.908 176.256C119.232 177.066 119.394 177.876 119.718 178.686C114.534 179.334 109.35 179.982 104.166 180.468ZM43.9017 187.272C43.5777 186.138 43.2537 185.166 42.9297 184.032C42.9297 184.032 42.9297 184.032 42.9297 183.87C42.9297 183.87 42.9297 183.87 43.0917 183.87C48.4377 183.384 53.6217 182.736 58.9677 182.25C58.8057 182.412 58.8057 182.412 58.6437 182.574C58.3197 183.222 58.1577 183.87 58.3197 184.518C58.3197 184.68 58.4817 184.842 58.4817 185.166C54.1077 185.652 49.8957 185.976 45.5217 186.462C44.8737 186.462 44.2257 186.786 43.9017 187.272ZM27.0537 261.792C31.1037 256.446 34.1817 250.614 36.1257 244.134C37.0977 251.748 38.0697 259.524 39.3657 267.138C35.1537 265.518 31.1037 263.736 27.0537 261.792ZM63.0177 151.47C62.2077 150.66 61.2357 150.174 60.2637 149.688C61.2357 149.04 62.2077 148.554 63.3417 148.878C65.1237 149.526 65.9337 152.118 66.4197 153.9C67.3917 157.464 68.3637 161.514 67.7157 165.24C67.2297 162.648 66.5817 160.056 65.9337 157.626C65.2857 155.358 64.6377 153.09 63.0177 151.47ZM71.6037 154.386C75.8157 154.062 80.0277 153.738 84.2397 153.414C80.0277 153.9 75.8157 154.224 71.6037 154.71C71.6037 154.548 71.6037 154.548 71.6037 154.386ZM90.7197 149.04C91.5297 148.392 92.3397 147.906 93.3117 147.42C93.7977 147.096 94.2837 146.934 94.9317 146.61C95.0937 146.448 95.4177 146.448 95.5797 146.286C95.5797 146.286 95.5797 146.286 95.7417 146.286C95.9037 146.448 96.0657 146.772 96.0657 146.772C96.2277 147.258 96.5517 147.744 96.7137 148.068C97.1997 149.202 97.5237 150.336 97.8477 151.632C98.8197 155.358 98.9817 159.246 98.4957 162.972C96.8757 157.95 94.4457 153.09 90.7197 149.04ZM126.198 146.61C126.198 146.448 126.036 146.286 126.036 146.124C126.198 146.124 126.36 145.962 126.522 145.962C127.332 145.638 128.466 144.99 129.114 144.828C129.924 144.666 130.41 145.476 130.734 146.286C131.382 147.42 132.03 148.554 132.354 149.85C133.65 153.414 134.136 157.302 133.812 161.028C132.516 155.844 129.924 150.822 126.198 146.61ZM137.052 148.23C144.018 147.42 150.984 146.61 157.95 145.638C157.95 145.962 157.95 146.124 157.95 146.448C157.95 146.61 158.112 146.934 158.112 147.096C151.308 147.582 144.504 147.906 137.7 148.392C137.538 148.392 137.376 148.392 137.214 148.554C137.052 148.554 137.052 148.392 137.052 148.23Z" fill="#0F0E98"/>
<path d="M88.2895 227.448C86.5075 227.934 84.7255 228.258 83.1055 228.582C81.6475 218.7 80.0275 208.98 78.2455 199.098C77.9215 196.992 74.8435 196.83 73.7095 198.45C68.5255 206.874 62.8555 215.136 56.8615 222.912C56.5375 223.074 56.3755 223.398 56.2135 223.722C54.7555 226.314 53.2975 228.906 51.8395 231.498C50.8675 233.28 52.1635 235.062 53.9455 235.224C62.3695 235.872 70.7935 235.548 79.0555 234.252C80.0275 241.704 80.9995 249.156 81.8095 256.77C82.1335 259.848 86.9935 259.848 86.6695 256.77C85.8595 248.994 84.8875 241.218 83.9155 233.442C85.8595 233.118 87.8035 232.632 89.7475 232.146C92.6635 231.498 91.3675 226.638 88.2895 227.448ZM57.9955 230.526C58.8055 229.23 59.4535 227.934 60.2635 226.476L60.4255 226.314C65.4475 219.834 69.9835 213.192 74.5195 206.226C75.8155 213.84 77.1115 221.616 78.2455 229.392C71.4415 230.526 64.7995 230.85 57.9955 230.526Z" fill="#0F0E98"/>
<path d="M116.316 207.684C113.886 207.846 111.618 208.818 109.674 210.114C108.864 209.628 107.73 209.628 106.92 210.6C102.06 215.784 97.848 222.75 98.658 230.202C99.468 236.844 104.004 243.162 110.97 244.134C117.936 244.944 124.578 240.408 127.332 234.09C130.086 227.772 129.762 219.024 126.036 213.03C123.93 209.628 120.366 207.36 116.316 207.684ZM123.444 230.526C121.986 235.224 117.774 239.274 112.752 239.274C107.892 239.274 104.652 235.062 103.68 230.526C102.87 225.99 104.652 221.616 107.244 217.89C107.892 218.052 108.54 217.89 109.188 217.08C112.266 213.678 117.936 210.276 121.5 214.974C124.578 219.186 124.902 225.666 123.444 230.526Z" fill="#0F0E98"/>
<path d="M157.301 212.706C156.005 213.03 154.709 213.192 153.413 213.354C152.927 209.952 152.603 206.712 152.117 203.31C151.631 199.422 151.631 195.21 149.687 191.646C148.877 190.35 146.933 190.026 145.799 191.16C138.995 198.612 133.325 207.198 129.437 216.432C128.789 218.052 129.599 220.158 131.543 220.158C137.375 220.158 143.369 219.672 149.201 218.862C150.173 226.476 151.145 234.252 151.955 241.866C152.279 244.944 157.301 244.944 156.815 241.866C155.843 233.928 154.871 225.99 153.899 218.214C155.519 217.89 156.977 217.728 158.435 217.404C161.675 216.918 160.379 212.058 157.301 212.706ZM147.581 205.74C147.905 208.494 148.229 211.248 148.553 214.002C144.179 214.488 139.805 214.974 135.593 215.136C138.671 208.98 142.397 203.148 146.771 197.802C147.095 200.394 147.257 203.31 147.581 205.74Z" fill="#0F0E98"/>
<path d="M93.1495 107.406C92.6635 109.026 93.6355 109.998 94.9315 110.322C94.7695 111.618 95.5795 113.076 97.1995 112.914C119.231 111.618 141.101 107.406 162.161 100.602C164.267 99.954 164.267 97.524 163.133 96.39C164.915 86.832 166.373 76.95 164.591 67.23C163.781 62.37 161.837 57.834 159.083 53.46C156.653 49.572 153.575 45.684 152.441 40.986C151.469 37.098 151.631 32.886 146.447 32.886C143.855 32.886 141.263 33.534 138.671 34.02C135.593 34.506 132.515 34.992 129.599 35.478C117.449 37.422 105.137 39.528 92.9875 41.472C92.1775 41.634 91.6915 41.958 91.5295 42.444C89.9095 39.69 85.6975 42.12 87.3175 44.874C98.0095 63.99 100.115 86.832 93.1495 107.406ZM94.2835 46.332C104.813 44.55 115.181 42.93 125.711 41.148C130.895 40.338 136.241 39.366 141.425 38.556C142.559 38.394 144.341 37.746 145.313 37.908C147.095 38.07 146.933 38.394 147.257 40.176C147.581 42.12 148.067 43.74 148.877 45.522C150.497 49.248 152.765 52.488 154.871 55.89C157.301 59.778 159.083 63.828 159.731 68.364C161.351 77.598 159.731 87.318 157.949 96.552C138.509 102.708 118.421 106.434 98.0095 107.73C104.651 87.48 103.031 65.124 93.4735 46.17C93.7975 46.494 93.9595 46.494 94.2835 46.332Z" fill="#0F0E98"/>
<path d="M112.914 66.744C114.372 67.068 115.506 66.258 115.992 64.962C117.45 61.398 119.718 58.32 122.634 55.728C124.74 53.784 128.466 51.03 131.544 52.164C135.27 53.622 133.326 59.292 132.678 61.884C131.382 66.582 130.086 71.28 128.79 75.978C127.98 79.056 132.678 80.352 133.488 77.274C134.622 72.9 135.918 68.526 137.052 64.152C138.186 60.102 139.482 55.89 137.538 51.84C135.756 48.114 131.868 46.656 127.98 47.304C124.254 47.952 121.014 50.22 118.26 52.812C115.02 55.89 112.59 59.616 110.97 63.666C110.808 64.962 111.78 66.42 112.914 66.744Z" fill="#0F0E98"/>
<path d="M137.538 89.9101C137.538 89.5861 137.376 89.2621 137.214 89.1001C137.214 88.9381 137.052 88.9381 137.052 88.7761C136.728 88.2901 136.242 87.8041 135.756 87.4801C135.432 87.3181 135.27 87.1561 134.946 87.1561C134.784 87.1561 134.784 87.1561 134.622 86.9941C133.974 86.8321 133.488 86.8321 132.678 86.9941C132.516 86.9941 132.516 86.9941 132.354 87.1561C132.03 87.3181 131.706 87.3181 131.544 87.4801C130.896 87.8041 130.572 88.2901 130.248 88.7761C130.086 88.9381 130.086 89.1001 129.924 89.4241C129.762 89.5861 129.762 89.9101 129.762 90.0721C129.762 90.3961 129.6 90.7201 129.6 91.0441C129.6 91.2061 129.6 91.3681 129.6 91.5301C129.6 91.8541 129.6 92.1781 129.762 92.5021C129.762 92.8261 129.924 93.1501 130.086 93.4741C130.248 93.9601 130.572 94.2841 130.896 94.7701C131.22 95.0941 131.382 95.2561 131.706 95.4181C131.868 95.5801 132.03 95.5801 132.03 95.7421C133.002 96.2281 134.136 96.5521 135.108 96.3901C135.432 96.3901 135.756 96.3901 136.08 96.2281C136.404 96.0661 136.728 95.9041 136.89 95.7421C137.376 95.2561 137.7 94.6081 137.538 93.9601C137.538 93.4741 137.376 93.1501 137.214 92.8261C137.376 92.6641 137.376 92.3401 137.538 92.1781C137.7 91.2061 137.7 90.5581 137.538 89.9101Z" fill="#0F0E98"/>
<path d="M230.688 85.8599C220.158 108.378 208.656 130.572 196.344 152.28C194.724 155.034 199.098 157.464 200.556 154.71C212.868 133.002 224.37 110.97 234.9 88.2899C236.358 85.5359 232.146 82.9439 230.688 85.8599Z" fill="#0F0E98"/>
<path d="M289.17 190.836C260.658 180.144 233.118 167.346 206.55 152.442C203.796 150.822 201.366 155.196 204.12 156.654C231.012 171.72 259.038 184.68 287.874 195.534C290.79 196.668 292.086 191.97 289.17 190.836Z" fill="#0F0E98"/>
<path d="M318.978 109.35C292.41 101.898 265.842 94.4459 239.274 86.9939C236.196 86.1839 234.9 90.8819 237.978 91.6919C263.574 98.9819 289.332 106.11 314.928 113.4C304.56 137.376 295.974 162 289.656 187.434C288.846 190.512 293.706 191.808 294.354 188.73C300.834 162.81 309.42 137.538 320.274 113.076C321.084 111.456 320.598 109.836 318.978 109.35Z" fill="#0F0E98"/>
<path d="M295.65 126.522C298.566 127.656 299.862 122.958 296.946 121.824C279.288 114.534 260.982 109.512 242.19 106.92C239.112 106.434 237.816 111.294 240.894 111.618C259.524 114.21 277.992 119.232 295.65 126.522Z" fill="#0F0E98"/>
<path d="M231.822 126.198C230.688 125.55 229.23 126.036 228.42 127.008C225.018 132.354 222.264 138.348 220.482 144.504C220.158 145.8 220.968 147.258 222.264 147.582C223.56 147.906 224.856 147.096 225.342 145.8C226.962 139.968 229.554 134.622 232.794 129.6C233.442 128.466 232.956 126.846 231.822 126.198Z" fill="#0F0E98"/>
<path d="M285.119 148.068C283.985 147.42 282.365 147.744 281.717 148.878C280.907 150.66 279.935 152.604 279.125 154.386C275.399 152.766 271.511 151.308 267.785 149.688C268.595 148.23 269.243 146.772 270.215 145.314C270.863 144.18 270.539 142.56 269.405 141.912C268.109 141.264 266.813 141.588 266.003 142.722C265.031 144.342 264.059 145.962 263.249 147.582C259.523 145.962 255.797 144.342 252.071 142.722C253.205 140.616 254.339 138.672 255.473 136.566C256.121 135.432 255.797 133.812 254.663 133.164C253.529 132.516 251.909 132.84 251.261 133.974C250.127 136.242 248.831 138.348 247.697 140.616C244.781 139.32 242.027 138.186 239.111 136.728C236.195 135.432 233.765 139.644 236.681 140.94C239.597 142.236 242.513 143.532 245.267 144.828C244.781 145.638 244.457 146.448 243.971 147.258C243.323 148.392 243.647 150.012 244.781 150.66C245.915 151.308 247.535 150.984 248.183 149.85C248.669 148.878 249.155 147.906 249.803 146.934C253.691 148.716 257.579 150.336 261.467 152.118C260.819 153.9 260.333 155.52 260.009 157.302C259.037 156.978 258.227 156.654 257.255 156.33C247.697 153.09 238.301 149.85 228.743 146.61C225.665 145.638 224.369 150.336 227.447 151.308C236.357 154.386 245.267 157.464 254.177 160.38C260.333 162.486 267.299 164.106 272.969 167.832C272.807 168.318 272.645 168.642 272.321 169.128C271.835 170.262 271.997 171.72 273.131 172.53C274.265 173.178 275.885 172.854 276.533 171.72C276.695 171.558 276.695 171.234 276.857 171.072C279.125 172.692 282.041 169.452 279.935 167.346C279.611 167.022 279.287 166.86 278.963 166.536C279.935 164.592 280.745 162.486 281.717 160.542C281.879 160.542 282.041 160.704 282.203 160.704C284.957 161.838 286.253 157.464 283.823 156.168C284.633 154.548 285.443 152.766 286.091 151.146C286.415 150.174 286.253 148.716 285.119 148.068ZM274.751 163.782C271.511 161.838 268.109 160.38 264.545 159.246C264.869 157.626 265.355 155.844 265.841 154.386C269.567 156.006 273.293 157.464 277.019 159.084C276.371 160.542 275.561 162.162 274.751 163.782Z" fill="#0F0E98"/>
<path d="M237.168 127.332C254.664 130.41 271.674 135.594 287.874 143.046C290.79 144.342 293.22 140.13 290.304 138.834C273.78 131.22 256.446 125.712 238.464 122.472C235.386 121.986 233.928 126.684 237.168 127.332Z" fill="#0F0E98"/>
</svg>
