<svg width="24" height="24" viewBox="0 0 24 24" fill="none" xmlns="http://www.w3.org/2000/svg">
<path d="M14.425 8.42499C14.1917 7.85832 13.8583 7.41665 13.425 7.09999C12.9917 6.78332 12.475 6.62499 11.875 6.62499C11.3583 6.62499 10.9 6.71249 10.5 6.88749C10.1 7.06249 9.75832 7.31665 9.47499 7.64999L8.42499 6.59999C8.77499 6.19999 9.17915 5.88332 9.63749 5.64999C10.0958 5.41665 10.5833 5.26665 11.1 5.19999V2.99999H12.6V5.17499C13.3 5.25832 13.9375 5.51249 14.5125 5.93749C15.0875 6.36249 15.5417 6.97499 15.875 7.77499L14.425 8.42499ZM20.15 22.6L15.35 17.8C14.9833 18.15 14.5625 18.4083 14.0875 18.575C13.6125 18.7417 13.1167 18.8417 12.6 18.875V21H11.1V18.85C10.15 18.7167 9.35832 18.3375 8.72499 17.7125C8.09165 17.0875 7.64165 16.325 7.37499 15.425L8.87499 14.9C9.10832 15.75 9.48749 16.3833 10.0125 16.8C10.5375 17.2167 11.2 17.425 12 17.425C12.4333 17.425 12.8542 17.3708 13.2625 17.2625C13.6708 17.1542 14 16.9667 14.25 16.7L1.42499 3.87499L2.49999 2.79999L21.225 21.525L20.15 22.6Z" fill="#607EFC"/>
</svg>
