<svg width="25" height="24" viewBox="0 0 25 24" fill="none" xmlns="http://www.w3.org/2000/svg">
<path d="M21.9323 19.4583H4.01562V3.20833C4.01562 3.09375 3.92188 3 3.80729 3H2.34896C2.23437 3 2.14062 3.09375 2.14062 3.20833V21.125C2.14062 21.2396 2.23437 21.3333 2.34896 21.3333H21.9323C22.0469 21.3333 22.1406 21.2396 22.1406 21.125V19.6667C22.1406 19.5521 22.0469 19.4583 21.9323 19.4583ZM6.30729 17.375H7.76562C7.88021 17.375 7.97396 17.2812 7.97396 17.1667V13.4167C7.97396 13.3021 7.88021 13.2083 7.76562 13.2083H6.30729C6.19271 13.2083 6.09896 13.3021 6.09896 13.4167V17.1667C6.09896 17.2812 6.19271 17.375 6.30729 17.375ZM10.2656 17.375H11.724C11.8385 17.375 11.9323 17.2812 11.9323 17.1667V8.83333C11.9323 8.71875 11.8385 8.625 11.724 8.625H10.2656C10.151 8.625 10.0573 8.71875 10.0573 8.83333V17.1667C10.0573 17.2812 10.151 17.375 10.2656 17.375ZM14.224 17.375H15.6823C15.7969 17.375 15.8906 17.2812 15.8906 17.1667V10.8646C15.8906 10.75 15.7969 10.6562 15.6823 10.6562H14.224C14.1094 10.6562 14.0156 10.75 14.0156 10.8646V17.1667C14.0156 17.2812 14.1094 17.375 14.224 17.375ZM18.1823 17.375H19.6406C19.7552 17.375 19.849 17.2812 19.849 17.1667V6.75C19.849 6.63542 19.7552 6.54167 19.6406 6.54167H18.1823C18.0677 6.54167 17.974 6.63542 17.974 6.75V17.1667C17.974 17.2812 18.0677 17.375 18.1823 17.375Z" fill="#1B3DE6"/>
</svg>
