<svg width="40" height="40" viewBox="0 0 40 40" fill="none" xmlns="http://www.w3.org/2000/svg">
<rect width="40" height="40" rx="4" fill="#E3E8FF"/>
<path d="M11 29V15.125H15.125V11H24.875V19.25H29V29H21.325V24.875H18.675V29H11ZM12.5 27.5H15.125V24.875H12.5V27.5ZM12.5 23.375H15.125V20.75H12.5V23.375ZM12.5 19.25H15.125V16.625H12.5V19.25ZM16.625 23.375H19.25V20.75H16.625V23.375ZM16.625 19.25H19.25V16.625H16.625V19.25ZM16.625 15.125H19.25V12.5H16.625V15.125ZM20.75 23.375H23.375V20.75H20.75V23.375ZM20.75 19.25H23.375V16.625H20.75V19.25ZM20.75 15.125H23.375V12.5H20.75V15.125ZM24.875 27.5H27.5V24.875H24.875V27.5ZM24.875 23.375H27.5V20.75H24.875V23.375Z" fill="#607EFC"/>
</svg>
