<svg width="18" height="24" viewBox="0 0 18 24" fill="none" xmlns="http://www.w3.org/2000/svg">
<path d="M17.1429 18.6624H16.5V9.55525C16.5 5.77578 13.7063 2.65257 10.0714 2.13292V1.09096C10.0714 0.498996 9.59196 0.0195312 9 0.0195312C8.40804 0.0195312 7.92857 0.498996 7.92857 1.09096V2.13292C4.29375 2.65257 1.5 5.77578 1.5 9.55525V18.6624H0.857143C0.383036 18.6624 0 19.0454 0 19.5195V20.3767C0 20.4945 0.0964286 20.591 0.214286 20.591H6C6 22.2463 7.34464 23.591 9 23.591C10.6554 23.591 12 22.2463 12 20.591H17.7857C17.9036 20.591 18 20.4945 18 20.3767V19.5195C18 19.0454 17.617 18.6624 17.1429 18.6624ZM9 21.8767C8.29018 21.8767 7.71429 21.3008 7.71429 20.591H10.2857C10.2857 21.3008 9.70982 21.8767 9 21.8767ZM3.42857 18.6624V9.55525C3.42857 8.06596 4.00714 6.66775 5.05982 5.61507C6.1125 4.56239 7.51072 3.98382 9 3.98382C10.4893 3.98382 11.8875 4.56239 12.9402 5.61507C13.9929 6.66775 14.5714 8.06596 14.5714 9.55525V18.6624H3.42857Z" fill="#222732"/>
</svg>
